<svg xmlns="http://www.w3.org/2000/svg" viewBox="0 0 200 200" role="img" aria-label="SEKAR illustration">
      <!-- Shadow cloud -->
      <path d="M58 138 Q34 138 34 116 Q34 96 56 92 Q60 70 84 70 Q108 70 114 90 Q140 90 142 114 Q142 138 122 138 Z" fill="#1C1917" transform="translate(4 4)"/>
      <!-- Cloud -->
      <path d="M58 138 Q34 138 34 116 Q34 96 56 92 Q60 70 84 70 Q108 70 114 90 Q140 90 142 114 Q142 138 122 138 Z" fill="#FFFFFF" stroke="#1C1917" stroke-width="3" stroke-linejoin="round"/>
      <!-- Dashes (lost signal) -->
      <line x1="58" y1="112" x2="68" y2="112" stroke="#D6D3D1" stroke-width="3" stroke-linecap="round"/>
      <line x1="80" y1="112" x2="100" y2="112" stroke="#D6D3D1" stroke-width="3" stroke-linecap="round"/>
      <line x1="112" y1="112" x2="124" y2="112" stroke="#D6D3D1" stroke-width="3" stroke-linecap="round"/>
      <!-- X badge -->
      <circle cx="152" cy="148" r="24" fill="#DC2626" stroke="#1C1917" stroke-width="3"/>
      <line x1="142" y1="138" x2="162" y2="158" stroke="#FFFFFF" stroke-width="4" stroke-linecap="round"/>
      <line x1="162" y1="138" x2="142" y2="158" stroke="#FFFFFF" stroke-width="4" stroke-linecap="round"/>
</svg>
